# Blender v2.80 (sub 75) OBJ File: ''
# www.blender.org
mtllib cube_smooth.mtl
o Cube_Cube.001
v 0.689994 -1.000000 -0.689994
v 0.689994 -0.689994 -1.000000
v 1.000000 -0.689994 -0.689994
v 0.689994 0.689994 -1.000000
v 0.689994 1.000000 -0.689994
v 1.000000 0.689994 -0.689994
v 0.689994 -1.000000 0.689994
v 1.000000 -0.689994 0.689994
v 0.689994 -0.689994 1.000000
v 0.689994 1.000000 0.689994
v 0.689994 0.689994 1.000000
v 1.000000 0.689994 0.689994
v -0.689994 -1.000000 -0.689994
v -1.000000 -0.689994 -0.689994
v -0.689994 -0.689994 -1.000000
v -0.689994 1.000000 -0.689994
v -0.689994 0.689994 -1.000000
v -1.000000 0.689994 -0.689994
v -0.689994 -1.000000 0.689994
v -0.689994 -0.689994 1.000000
v -1.000000 -0.689994 0.689994
v -0.689994 1.000000 0.689994
v -1.000000 0.689994 0.689994
v -0.689994 0.689994 1.000000
vt 0.681538 0.840543
vt 0.426656 0.840543
vt 0.426656 0.526196
vt 0.681538 0.526196
vt 0.080975 0.615037
vt 0.261204 0.615037
vt 0.261204 0.929384
vt 0.080975 0.929384
vt 1.000000 0.384963
vt 0.819771 0.384963
vt 0.819771 0.070616
vt 1.000000 0.070616
vt 0.312140 0.322143
vt 0.312140 0.544420
vt 0.057258 0.544420
vt 0.057258 0.322143
vt 0.681538 0.070616
vt 0.681538 0.384963
vt 0.426656 0.384963
vt 0.426656 0.070616
vt 0.312140 0.222277
vt 0.369398 0.272210
vt 0.779284 0.000000
vt 0.738796 0.070616
vt 0.057258 0.222277
vt 0.000000 0.272210
vt 0.779284 0.455580
vt 0.738796 0.384963
vt 0.000000 0.929384
vt 0.040487 1.000000
vt 0.342179 0.929384
vt 0.301691 1.000000
vt 0.000000 0.615037
vt 0.040487 0.544420
vt 0.342179 0.615037
vt 0.301691 0.544420
vt 0.426656 0.455580
vt 0.681538 0.455580
vt 0.738796 0.070616
vt 0.426656 0.000000
vt 0.681538 0.000000
vt 0.681538 0.455580
vt 0.426656 0.455580
vt 0.369398 0.384963
vt 0.369398 0.070616
vt 0.681538 0.911159
vt 0.426656 0.911159
vt 0.738796 0.526196
vt 0.738796 0.840543
vt 0.369398 0.840543
vt 0.369398 0.526196
vt 0.057258 0.000000
vt 0.312140 0.000000
vn -0.3416 -0.3416 -0.8756
vn -0.3416 0.3416 -0.8756
vn 0.3416 0.3416 -0.8756
vn 0.3416 -0.3416 -0.8756
vn -0.8756 -0.3416 0.3416
vn -0.8756 0.3416 0.3416
vn -0.8756 0.3416 -0.3416
vn -0.8756 -0.3416 -0.3416
vn -0.3416 0.8756 0.3416
vn 0.3416 0.8756 0.3416
vn 0.3416 0.8756 -0.3416
vn -0.3416 0.8756 -0.3416
vn 0.8756 -0.3416 -0.3416
vn 0.8756 0.3416 -0.3416
vn 0.8756 0.3416 0.3416
vn 0.8756 -0.3416 0.3416
vn 0.3416 -0.3416 0.8756
vn 0.3416 0.3416 0.8756
vn -0.3416 0.3416 0.8756
vn -0.3416 -0.3416 0.8756
vn 0.3416 -0.8756 -0.3416
vn 0.3416 -0.8756 0.3416
vn -0.3416 -0.8756 -0.3416
vn -0.3416 -0.8756 0.3416
usemtl Cube_Material
s 1
f 15/1/1 17/2/2 4/3/3 2/4/4
f 21/5/5 23/6/6 18/7/7 14/8/8
f 22/9/9 10/10/10 5/11/11 16/12/12
f 3/13/13 6/14/14 12/15/15 8/16/16
f 9/17/17 11/18/18 24/19/19 20/20/20
f 1/21/21 2/22/4 3/13/13
f 4/23/3 5/11/11 6/24/14
f 7/25/22 8/16/16 9/26/17
f 10/10/10 11/27/18 12/28/15
f 13/29/23 14/8/8 15/30/1
f 16/31/12 17/32/2 18/7/7
f 19/33/24 20/34/20 21/5/5
f 22/35/9 23/6/6 24/36/19
f 7/25/22 1/21/21 3/13/13 8/16/16
f 2/4/4 4/3/3 6/37/14 3/38/13
f 5/11/11 10/10/10 12/28/15 6/24/14
f 11/18/18 9/17/17 8/39/16 12/28/15
f 19/40/24 7/41/22 9/17/17 20/20/20
f 10/42/10 22/43/9 24/19/19 11/18/18
f 23/44/6 21/45/5 20/20/20 24/19/19
f 13/29/23 19/33/24 21/5/5 14/8/8
f 22/35/9 16/31/12 18/7/7 23/6/6
f 17/2/2 15/1/1 14/46/8 18/47/7
f 1/48/21 13/49/23 15/1/1 2/4/4
f 16/50/12 5/51/11 4/3/3 17/2/2
f 7/25/22 19/52/24 13/53/23 1/21/21
