# Blender v2.80 (sub 75) OBJ File: ''
# www.blender.org
mtllib cube,obj.mtl
o Cube_Cube.001
v 0.689994 -1.000000 -0.689994
v 0.689994 -0.689994 -1.000000
v 1.000000 -0.689994 -0.689994
v 0.689994 0.689994 -1.000000
v 0.689994 1.000000 -0.689994
v 1.000000 0.689994 -0.689994
v 0.689994 -1.000000 0.689994
v 1.000000 -0.689994 0.689994
v 0.689994 -0.689994 1.000000
v 0.689994 1.000000 0.689994
v 0.689994 0.689994 1.000000
v 1.000000 0.689994 0.689994
v -0.689994 -1.000000 -0.689994
v -1.000000 -0.689994 -0.689994
v -0.689994 -0.689994 -1.000000
v -0.689994 1.000000 -0.689994
v -0.689994 0.689994 -1.000000
v -1.000000 0.689994 -0.689994
v -0.689994 -1.000000 0.689994
v -0.689994 -0.689994 1.000000
v -1.000000 -0.689994 0.689994
v -0.689994 1.000000 0.689994
v -1.000000 0.689994 0.689994
v -0.689994 0.689994 1.000000
vt 0.681538 0.840543
vt 0.426656 0.840543
vt 0.426656 0.526196
vt 0.681538 0.526196
vt 0.080975 0.615037
vt 0.261204 0.615037
vt 0.261204 0.929384
vt 0.080975 0.929384
vt 1.000000 0.384963
vt 0.819771 0.384963
vt 0.819771 0.070616
vt 1.000000 0.070616
vt 0.312140 0.322143
vt 0.312140 0.544420
vt 0.057258 0.544420
vt 0.057258 0.322143
vt 0.681538 0.070616
vt 0.681538 0.384963
vt 0.426656 0.384963
vt 0.426656 0.070616
vt 0.312140 0.222277
vt 0.369398 0.272210
vt 0.779284 0.000000
vt 0.738796 0.070616
vt 0.057258 0.222277
vt 0.000000 0.272210
vt 0.779284 0.455580
vt 0.738796 0.384963
vt 0.000000 0.929384
vt 0.040487 1.000000
vt 0.342179 0.929384
vt 0.301691 1.000000
vt 0.000000 0.615037
vt 0.040487 0.544420
vt 0.342179 0.615037
vt 0.301691 0.544420
vt 0.426656 0.455580
vt 0.681538 0.455580
vt 0.738796 0.070616
vt 0.426656 0.000000
vt 0.681538 0.000000
vt 0.681538 0.455580
vt 0.426656 0.455580
vt 0.369398 0.384963
vt 0.369398 0.070616
vt 0.681538 0.911159
vt 0.426656 0.911159
vt 0.738796 0.526196
vt 0.738796 0.840543
vt 0.369398 0.840543
vt 0.369398 0.526196
vt 0.057258 0.000000
vt 0.312140 0.000000
vn 0.0000 0.0000 -1.0000
vn -1.0000 0.0000 0.0000
vn 0.0000 1.0000 0.0000
vn 1.0000 0.0000 0.0000
vn 0.0000 0.0000 1.0000
vn 0.5774 -0.5774 -0.5774
vn 0.5774 0.5774 -0.5774
vn 0.5774 -0.5774 0.5774
vn 0.5774 0.5774 0.5774
vn -0.5774 -0.5774 -0.5774
vn -0.5774 0.5774 -0.5774
vn -0.5774 -0.5774 0.5774
vn -0.5774 0.5774 0.5774
vn 0.7071 -0.7071 0.0000
vn 0.7071 0.0000 -0.7071
vn 0.7071 0.7071 0.0000
vn 0.7071 0.0000 0.7071
vn 0.0000 -0.7071 0.7071
vn 0.0000 0.7071 0.7071
vn -0.7071 0.0000 0.7071
vn -0.7071 -0.7071 0.0000
vn -0.7071 0.7071 0.0000
vn -0.7071 0.0000 -0.7071
vn 0.0000 -0.7071 -0.7071
vn 0.0000 0.7071 -0.7071
vn 0.0000 -1.0000 0.0000
usemtl Material.002
s off
f 15/1/1 17/2/1 4/3/1 2/4/1
f 21/5/2 23/6/2 18/7/2 14/8/2
f 22/9/3 10/10/3 5/11/3 16/12/3
f 3/13/4 6/14/4 12/15/4 8/16/4
f 9/17/5 11/18/5 24/19/5 20/20/5
f 1/21/6 2/22/6 3/13/6
f 4/23/7 5/11/7 6/24/7
f 7/25/8 8/16/8 9/26/8
f 10/10/9 11/27/9 12/28/9
f 13/29/10 14/8/10 15/30/10
f 16/31/11 17/32/11 18/7/11
f 19/33/12 20/34/12 21/5/12
f 22/35/13 23/6/13 24/36/13
f 7/25/14 1/21/14 3/13/14 8/16/14
f 2/4/15 4/3/15 6/37/15 3/38/15
f 5/11/16 10/10/16 12/28/16 6/24/16
f 11/18/17 9/17/17 8/39/17 12/28/17
f 19/40/18 7/41/18 9/17/18 20/20/18
f 10/42/19 22/43/19 24/19/19 11/18/19
f 23/44/20 21/45/20 20/20/20 24/19/20
f 13/29/21 19/33/21 21/5/21 14/8/21
f 22/35/22 16/31/22 18/7/22 23/6/22
f 17/2/23 15/1/23 14/46/23 18/47/23
f 1/48/24 13/49/24 15/1/24 2/4/24
f 16/50/25 5/51/25 4/3/25 17/2/25
f 7/25/26 19/52/26 13/53/26 1/21/26
